<svg height="31" viewBox="0 0 37 31" width="37" xmlns="http://www.w3.org/2000/svg"><path d="m13.8829902 16.2253521c.6067354 0 1.0985916.4918562 1.0985916 1.0985916 0 .5633971-.4241005 1.0277402-.9704726 1.0912005l-.128119.007391-8.36721122-.0002535.00101409 11.070676c0 .5633972-.42410049 1.0277403-.97047257 1.0912006l-.12811898.007391c-.56339712 0-1.02774026-.4241005-1.09120052-.9704726l-.00739103-.128119v-12.169014c0-.5633972.42410049-1.0277403.97047256-1.0912006l.12811899-.007391zm21.6338029 12.1690141c.6067353 0 1.0985915.4918562 1.0985915 1.0985915 0 .5633972-.4241005 1.0277403-.9704726 1.0912006l-.1281189.007391h-33.80281694c-.60673535 0-1.09859154-.4918562-1.09859154-1.0985916 0-.5633971.42410049-1.0277402.97047256-1.0912005l.12811898-.007391zm-2.7042254-28.3943662c.6067354 0 1.0985916.49185619 1.0985916 1.09859155v28.39436615c0 .6067354-.4918562 1.0985916-1.0985916 1.0985916h-9.4647887c-.6067354 0-1.0985916-.4918562-1.0985916-1.0985916l-.0008028-19.1839577-7.2671408.0001831.000338 19.1837746c0 .5633972-.4241005 1.0277403-.9704726 1.0912006l-.128119.007391c-.5633971 0-1.0277402-.4241005-1.0912005-.9704726l-.007391-.128119v-20.28169009c0-.56339712.4241005-1.02774027.9704726-1.09120052l.1281189-.00739103 8.3653944-.00067606.0008028-7.01340845c0-.56628634.4284614-1.03250015.9788879-1.09214516l.1197037-.00644639zm-1.098676 2.1971831h-7.2682817v26.1970141h7.2682817z" fill="#6622c3"/></svg>