<svg height="35" viewBox="0 0 42 35" width="42" xmlns="http://www.w3.org/2000/svg"><path d="m15.7257133 18.4788732c.6910041 0 1.2511737.5601696 1.2511737 1.2511737 0 .6416468-.4830034 1.170482-1.1052605 1.2427562l-.1459132.0084176-9.52932399-.0002888.00115493 12.60827c0 .6416467-.48300334 1.1704819-1.10526042 1.2427561l-.14591329.0084176c-.64164672 0-1.17048196-.4830033-1.24275615-1.1052604l-.00841756-.1459133v-13.859155c0-.6416467.48300334-1.1704819 1.10526042-1.2427561l.14591329-.0084176zm24.6384976 13.859155c.6910042 0 1.2511737.5601695 1.2511737 1.2511737 0 .6416467-.4830033 1.1704819-1.1052604 1.2427561l-.1459133.0084176h-38.49765258c-.69100415 0-1.2511737-.5601696-1.2511737-1.2511737 0-.6416467.48300333-1.170482 1.10526042-1.2427562l.14591328-.0084175zm-3.0798122-32.3380282c.6910042 0 1.2511737.56016955 1.2511737 1.25117371v32.33802819c0 .6910041-.5601695 1.2511737-1.2511737 1.2511737h-10.7793427c-.6910042 0-1.2511737-.5601696-1.2511737-1.2511737l-.0004977-21.8482019-8.2768826.0000141.000385 21.8481878c0 .6416467-.4830034 1.1704819-1.1052605 1.2427561l-.1459132.0084176c-.6416468 0-1.170482-.4830033-1.2427562-1.1052604l-.0084176-.1459133v-23.0985916c0-.64164669.4830034-1.17048194 1.1052605-1.24275612l.1459133-.00841756 9.5276713-.00043662.0004977-7.98782629c0-.6478164.4923365-1.18064144 1.1232484-1.24471404l.1279253-.00645967zm-1.25127 2.50234742h-8.2777652v29.83548828h8.2777652z" fill="#6622c3"/></svg>