<svg width="48" height="48" xmlns="http://www.w3.org/2000/svg" alt="Häkchen"><defs><linearGradient x1="416.257%" y1="-143.271%" x2="16.799%" y2="93.027%" id="a"><stop stop-color="#674480" offset="0%"/><stop stop-color="#9C2C5E" offset="100%"/></linearGradient></defs><path d="M16.453 43.056L3.927 30.08c-1.195-1.106-1.243-2.98-.095-4.181 1.1-1.202 2.964-1.25 4.16-.096l9.178 6.584c.527.48 1.34.385 1.769-.192L40.693 5.184c.956-1.298 2.82-1.587 4.112-.577 1.29.961 1.578 2.835.574 4.134l-24.574 33.93c-.527.673-1.29 1.106-2.103 1.153-.097.049-.144.049-.24.049-.767 0-1.484-.29-2.009-.817z" fill="url(#a)" fillRule="evenodd"/></svg>