<svg fill="none" height="24" viewBox="0 0 30 24" width="30" xmlns="http://www.w3.org/2000/svg"><path clip-rule="evenodd" d="m.50002 1.88109c-.000206-.03272.001184-.06547.004177-.09811.008613-.09441.030348-.18502.063367-.27001.033441-.08618.079352-.16882.137845-.24517.026464-.03458.055136-.06739.085802-.0982.084471-.08499.180796-.15176.283889-.200092.12896-.060624.27298-.094508.42492-.094508h26.99998c.1563 0 .3042.03584.4359.099747.0919.044443.1781.103653.2552.177483.0499.04773.0949.10058.1341.1577.0322.04689.0599.09584.0832.14627.0588.12739.0916.26926.0916.4188v19.125c0 .5636-.2239 1.1041-.6224 1.5026s-.939.6224-1.5026.6224h-24.74998c-.56358 0-1.10409-.2239-1.5026-.6224-.398516-.3985-.6224-.939-.6224-1.5026zm2 2.26719v15.70352l8.56558-7.8518zm23.42918 16.97672h-21.85829l8.47459-7.7684 1.7788 1.6306c.3823.3504.9691.3504 1.3514 0l1.7788-1.6306zm1.5708-1.2732v-15.70354l-8.5656 7.85174zm-10.7089-8.6001 9.1381-8.3767h-21.85843l9.13863 8.3771c.0074.0065.0147.0132.0219.0201l1.7687 1.6213 1.7682-1.6209c.0076-.0071.0152-.0141.0229-.0209z" fill="#6622c3" fill-rule="evenodd"/></svg>