<svg height="40" viewBox="0 0 34 40" width="34" xmlns="http://www.w3.org/2000/svg"><path d="m45.5 21.5c.1003285 0 .1983565.0098499.2931696.0286355.0038972.001063.0079454.0018868.0119893.0027272.1369708.0280247.2669457.074938.387338.1377076.0160308.0086897.0318242.0172741.0474664.0261444.0283817.0158283.0562749.03291.0835477.0508576.0087086.0059137.0174267.0117712.026087.017723.0283636.0193693.0559306.0397788.0827514.0610872.04465.0354929.0875334.07368.1283108.1144573l-.0821041-.0762236c.0197502.0170151.0390522.0345361.0578858.0525428l.0242183.0236808 10.5 10.5c.0031966.0031967.0063773.0064063.0095421.0096287.2354223.2378921.390786.5544729.4244311.9065715l.0068666.14446-.00197.024.00047 23.976c0 .3150159-.0496541.6276524-.1468134.926883l-.0817431.2217371c-.1509284.3639683-.3719314.6947879-.6495623.9721187-.2784732.2787733-.6092928.4997763-.9742362.6511086-.363823.1505681-.7538751.2281526-1.147645.2281526h-27.00147c-.7955943 0-1.5586299-.3160996-2.121197-.8785767-.5626881-.562568-.878803-1.3257491-.878803-2.1214233v-33c0-.7956559.3160761-1.5587114.8786898-2.1213252.5626003-.5626002 1.3256714-.8786748 2.1213102-.8786748zm-1.50047 3h-16.501v33h27.00147l-.00047-22.5h-8.99953c-.7796961 0-1.4204487-.5948881-1.4931334-1.35554l-.0068666-.14446zm8.379 7.5-5.379-5.379.00047 5.379zm-5.37853 9c.8284271 0 1.5.6715729 1.5 1.5 0 .7796961-.5948881 1.4204487-1.35554 1.4931334l-.14446.0068666h-12c-.8284271 0-1.5-.6715729-1.5-1.5 0-.7796961.5948881-1.4204487 1.35554-1.4931334l.14446-.0068666zm0 6c.8284271 0 1.5.6715729 1.5 1.5 0 .7796961-.5948881 1.4204487-1.35554 1.4931334l-.14446.0068666h-12c-.8284271 0-1.5-.6715729-1.5-1.5 0-.7796961.5948881-1.4204487 1.35554-1.4931334l.14446-.0068666z" fill="#6622c3" transform="translate(-24 -21)"/></svg>