<svg width="28" height="28" viewBox="0 0 28 28" fill="none" xmlns="http://www.w3.org/2000/svg">
<path fill-rule="evenodd" clip-rule="evenodd" d="M14.9547 3.81818C12.015 3.81818 9.45821 5.46529 8.16003 7.8921C7.93319 8.31613 7.74502 8.76368 7.6001 9.2301C7.42281 9.80066 6.81656 10.1195 6.246 9.94218C5.67544 9.7649 5.35662 9.15865 5.53391 8.58808C5.71996 7.98931 5.96143 7.41511 6.25221 6.87154C7.91182 3.76909 11.1855 1.65454 14.9547 1.65454C18.724 1.65454 21.9977 3.76909 23.6573 6.87154C23.948 7.41511 24.1895 7.98931 24.3756 8.58808C24.5529 9.15865 24.234 9.7649 23.6635 9.94218C23.0929 10.1195 22.4867 9.80066 22.3094 9.2301C22.1645 8.76368 21.9763 8.31613 21.7495 7.8921C20.4513 5.46529 17.8945 3.81818 14.9547 3.81818ZM15.0184 10.3091C15.6159 10.3091 16.1002 10.7934 16.1002 11.3909V13.4909H21.8312C22.3737 13.4909 22.8323 13.8927 22.9036 14.4306L23.3527 17.8182H26.0914C26.3884 17.8182 26.6724 17.9403 26.8767 18.1559C27.0809 18.3715 27.1876 18.6616 27.1716 18.9582L26.8289 25.3218C26.798 25.8959 26.3236 26.3455 25.7487 26.3455H6.00057C5.63247 26.3455 5.28963 26.1583 5.09057 25.8487L0.999581 19.485C0.785579 19.1521 0.770419 18.729 0.96005 18.3816C1.14968 18.0343 1.51384 17.8182 1.90958 17.8182H6.01411L7.87556 14.0895C8.05869 13.7227 8.43346 13.4909 8.84347 13.4909H13.9366V11.3909C13.9366 10.7934 14.4209 10.3091 15.0184 10.3091ZM8.43237 17.8182H21.1701L20.8833 15.6545H9.51253L8.43237 17.8182ZM3.89113 19.9818L6.59118 24.1818H24.7236L24.9497 19.9818H3.89113ZM11.6907 10.8906C11.9842 9.32782 13.3578 8.14548 15.0053 8.14548C16.6528 8.14548 18.0265 9.32782 18.32 10.8906C18.4302 11.4778 18.9957 11.8644 19.5829 11.7542C20.1701 11.6439 20.5567 11.0785 20.4464 10.4913C19.9643 7.92428 17.7128 5.98185 15.0053 5.98185C12.2978 5.98185 10.0463 7.92428 9.56423 10.4913C9.45395 11.0785 9.84057 11.6439 10.4278 11.7542C11.015 11.8644 11.5804 11.4778 11.6907 10.8906Z" fill="#6622C3"/>
</svg>
