<svg width="52" height="71" xmlns="http://www.w3.org/2000/svg" viewBox="0 0 52 71"><g fillRule="nonzero" fill="none"><path d="M45.016 28.18h-38a6.505 6.505 0 00-6.5 6.5v29.059c0 3.586 2.914 6.5 6.5 6.5h38c3.586 0 6.5-2.914 6.5-6.5V34.68c0-3.586-2.918-6.5-6.5-6.5zm1.5 35.555a1.5 1.5 0 01-1.5 1.5h-38a1.5 1.5 0 01-1.5-1.5V34.68a1.5 1.5 0 011.5-1.5h38a1.5 1.5 0 011.5 1.5v29.055zm-20.5-23.336a4.668 4.668 0 00-4.668 4.668c0 1.547.762 2.902 1.918 3.754v7.203a2.75 2.75 0 105.5 0v-7.203c1.156-.852 1.918-2.207 1.918-3.754a4.668 4.668 0 00-4.668-4.668zM14.68 25.18c1.383 0 2.5-1.117 2.5-2.5v-8.113c0-4.871 3.965-8.836 8.832-8.836 4.871 0 8.836 3.965 8.836 8.836v8.113c0 1.383 1.117 2.5 2.5 2.5s2.5-1.117 2.5-2.5v-8.113C39.848 6.937 33.64.73 26.012.73 18.383.73 12.18 6.938 12.18 14.567v8.113c0 1.379 1.121 2.5 2.5 2.5z" fill="#69447F"/><path d="M26.016 40.399a4.668 4.668 0 00-4.668 4.668c0 1.547.762 2.902 1.918 3.754v7.203a2.75 2.75 0 105.5 0v-7.203c1.156-.852 1.918-2.207 1.918-3.754a4.668 4.668 0 00-4.668-4.668z" fill="#9B2D5F"/></g></svg>