<svg height="66" viewBox="0 0 49 66" width="49" xmlns="http://www.w3.org/2000/svg"><g fill="none" transform="translate(.611182 .5)"><path d="m23.451595 36.7774648c.2028169-.3380282.6760564-.3380282.8788733 0l2.4338028 4.3943662c.0676056.1352113.2028169.2704225.3380282.2704225l4.9352112.9464789c.4056338.0676056.5408451.5408451.1352113.8112676l-3.3802817 3.6507042c-.1352113.1352113-.1352113.2704226-.1352113.4056338l.6084507 4.9352113c.0676057.4056338-.3380281.6760563-.6760563.5408451l-4.5295775-2.0957747c-.1352112-.0676056-.2704225-.0676056-.4056338 0l-4.5295774 2.0957747c-.3380282.1352112-.743662-.1352113-.6760564-.5408451l.6084507-4.9352113c0-.1352112-.0676056-.2704225-.1352112-.4056338l-3.3802817-3.6507042c-.2704226-.2704225-.1352113-.743662.2704225-.8112676l4.8676057-.9464789c.1352112-.0676056.2704225-.1352112.3380281-.2704225zm-7.5718309-36.7774648c.2704225 0 .4732394.13521127.6084507.4056338l7.4366197 18.1183099 7.4366197-18.1183099c.0676056-.27042253.3380282-.4056338.6084507-.4056338h15.2112676c.4732394 0 .8112676.47323944.6084507.94647887l-11.2225352 27.38028173c-3.515493-2.6366198-7.9098592-4.1915493-12.6422535-4.1915493-4.7323944 0-9.1267606 1.5549295-12.5746479 4.1915493l-11.29014086-27.38028173c-.2028169-.47323943.13521127-.94647887.60845071-.94647887z" fill="#69447f"/><path d="m23.9248345 26.5690141c-10.4112676 0-18.86197186 8.4507042-18.86197186 18.8619718 0 10.343662 8.45070426 18.7943662 18.86197186 18.7943662s18.8619718-8.4507042 18.8619718-18.8619718-8.4507042-18.7943662-18.8619718-18.7943662zm0 31.4366197c-6.9633803 0-12.6422535-5.6788732-12.6422535-12.6422535s5.6788732-12.6422535 12.6422535-12.6422535 12.6422535 5.6788732 12.6422535 12.6422535c0 7.0309859-5.6788732 12.6422535-12.6422535 12.6422535z" fill="#9b2d5f"/></g></svg>