<svg height="43" viewBox="0 0 31 43" width="31" xmlns="http://www.w3.org/2000/svg"><path d="m29.1048747 21.4632283.1443276.0092407c.8232888.0921251 1.4160141.8342147 1.323889 1.6575035-.4125945 3.6872069-2.1695618 7.0929041-4.9350456 9.56612-2.4113821 2.1566833-5.4420253 3.4724441-8.6383011 3.774036l.0002554 4.5298715c0 .8284271-.6715729 1.5-1.5 1.5-.7796961 0-1.4204487-.5948881-1.4931334-1.35554l-.0068666-.14446.0002454-4.5463303c-3.1355764-.3306368-6.10362921-1.6379791-8.47351213-3.7575466-2.7654548-2.473205-4.52244772-5.8790299-4.93503444-9.5661498-.09212556-.8232887.50059932-1.5653787 1.32388808-1.6575042.82328875-.0921256 1.56537869.5005993 1.65750426 1.3238881.33053021 2.9538142 1.73808865 5.6822814 3.95354477 7.6636109 2.12016455 1.8962252 4.83788496 2.9809828 7.67277056 3.070802.097337-.0204215.1977567-.0307701.3005935-.0307701.1064199 0 .2102514.0110823.3104034.0321558l-.228031.004679c2.9723114 0 5.8402667-1.0954028 8.055774-3.0769004 2.2154907-1.9813484 3.6230154-4.7096876 3.9535523-7.6635765.086706-.77486.7491591-1.3454839 1.513176-1.3331296zm-13.6048747-20.9632283c2.3870178 0 4.6762652.94823785 6.3638989 2.63603352 1.6878627 1.68782673 2.6361011 3.97701796 2.6361011 6.36396648v12c0 2.3870117-.9482637 4.6762641-2.6360333 6.3638536-1.5965706 1.5967409-3.7343629 2.5341429-6.0193205 2.6292782l-.3446462.0068682c-1.1819835 0-2.3523581-.2327875-3.4441186-.685078-1.0919476-.4522934-2.0839805-1.1152008-2.91979157-1.9510118-.83581107-.8358111-1.49871841-1.827844-1.95097839-2.9197109-.45232396-1.0918412-.68511144-2.2622158-.68511144-3.4441993v-12.000015c0-2.38694852.94823841-4.67613975 2.63604458-6.36390992 1.59656732-1.59670354 3.73435452-2.53407543 6.01931042-2.62920717zm0 3-.2507271.00523388c-1.5023214.06276274-2.9275159.68767865-3.991874 1.7521276-1.1252427 1.12521862-1.7573989 2.6513396-1.7573989 4.24262352v12.000015c0 .7880033.15518399 1.5682144.45672202 2.2960814.30151408.7279292.74342838 1.3892486 1.30068818 1.9465084s1.2185792.9991741 1.9465891 1.3007216c.7277863.3015046 1.5079974.4566886 2.2646927.4570154l.2820328-.0055608c1.5023075-.0627645 2.9275009-.6876985 3.9919216-1.7522327 1.1251909-1.1250709 1.7573536-2.6512075 1.7573536-4.2425333v-12c0-1.59128392-.6321562-3.1174049-1.7574611-4.24268573-1.1250603-1.12516831-2.6511948-1.75731427-4.2425389-1.75731427z" fill="#6622c3"/></svg>