<svg width="28" height="28" viewBox="0 0 28 28" fill="none" xmlns="http://www.w3.org/2000/svg">
<path fill-rule="evenodd" clip-rule="evenodd" d="M7.63614 13.3351V4.89999H20.3634V13.5353L16.9737 16.3355L14.6473 14.597C14.2633 14.3101 13.7362 14.3101 13.3522 14.597L11.1261 16.2605L7.63614 13.3351ZM5.4725 11.5215V9.86362H3.49471L5.4725 11.5215ZM22.527 11.7479L24.8081 9.86362H22.527V11.7479ZM22.527 7.69998H25.8998C26.4972 7.69998 26.9816 8.18433 26.9816 8.7818V24.1818C26.9816 24.7793 26.4972 25.2636 25.8998 25.2636H2.09976C1.50229 25.2636 1.01794 24.7793 1.01794 24.1818V8.7818C1.01794 8.18433 1.50229 7.69998 2.09976 7.69998H5.4725V4.21671C5.4725 3.36498 6.17473 2.73636 6.96628 2.73636H21.0333C21.8248 2.73636 22.527 3.36498 22.527 4.21671V7.69998ZM9.86341 7.8909C9.86341 7.29343 10.3478 6.80908 10.9452 6.80908H16.5452C17.1427 6.80908 17.6271 7.29343 17.6271 7.8909C17.6271 8.48837 17.1427 8.97272 16.5452 8.97272H10.9452C10.3478 8.97272 9.86341 8.48837 9.86341 7.8909ZM24.8179 22.1971L18.7575 17.6684L24.8179 12.6619V22.1971ZM9.3454 17.5911L3.18158 12.4244V22.197L9.3454 17.5911ZM22.4117 23.1H5.58776L13.9997 16.8141L22.4117 23.1ZM10.9452 10.7545C10.3478 10.7545 9.86341 11.2389 9.86341 11.8364C9.86341 12.4338 10.3478 12.9182 10.9452 12.9182H16.5452C17.1427 12.9182 17.6271 12.4338 17.6271 11.8364C17.6271 11.2389 17.1427 10.7545 16.5452 10.7545H10.9452Z" fill="#6622C3"/>
</svg>
