<svg width="100" height="72" xmlns="http://www.w3.org/2000/svg" viewBox="0 0 100 72"><g fill="none"><path d="M49.46 28.485a5.318 5.318 0 015.323 5.463c.007.1.004.2-.01.302v9.456a5.332 5.332 0 016.082 1.22 5.306 5.306 0 011.222 2.155 5.324 5.324 0 017.056 2.205 5.272 5.272 0 012.816-.81 5.298 5.298 0 015.29 4.96.946.946 0 01.01.064v16.227c.013.418-.144.824-.437 1.125a1.53 1.53 0 01-1.113.473v-.001c-.86 0-1.563-.688-1.574-1.55V53.772a2.176 2.176 0 00-4.352 0v5.477c0 .87-.703 1.574-1.574 1.574a1.575 1.575 0 01-1.55-1.574v-7.774a2.198 2.198 0 00-2.189-1.968 2.203 2.203 0 00-2.186 1.962v7.78c0 .87-.704 1.574-1.575 1.574a1.575 1.575 0 01-1.55-1.574v-7.774l-.001.001v-2.552.001-.008l-.011-.142a1.6 1.6 0 01.014-.261 2.182 2.182 0 00-.554-1.296 2.21 2.21 0 00-3.273 0c-.313.35-.505.79-.552 1.253l.002 10.778c0 .86-.688 1.562-1.547 1.574a1.575 1.575 0 01-1.578-1.574V48.925l-.001.001a5.376 5.376 0 01-.001-.696l.002-13.98c-.018-.15-.015-.3.008-.445l-.02-.184a2.198 2.198 0 00-.54-1.152 2.21 2.21 0 00-3.273 0c-.32.359-.514.811-.555 1.285.022.139.023.28.005.422l.001 19.06c.024.158.024.319 0 .476l-.001 11.34c0 .41-.16.804-.453 1.093a1.54 1.54 0 01-1.094.457 1.578 1.578 0 01-1.578-1.55v-8.46l-4.65 3.432v9.75a1.573 1.573 0 01-1.476 1.55 1.546 1.546 0 01-1.547-1.55V59.25c0-.492.23-.953.625-1.25l7.047-5.302V34.176l-.002-.03-.008-.12v-.068l.01.218a5.33 5.33 0 015.313-5.691zM72.825 5.698a4.426 4.426 0 014.426 4.426v21.227a4.423 4.423 0 01-4.426 4.422h-10.25a1.573 1.573 0 01-1.238-2.742c.34-.301.789-.438 1.238-.383h10.25c.344 0 .676-.137.922-.379.242-.242.379-.574.379-.918V10.124a1.3 1.3 0 00-1.301-1.3h-56.7c-.723 0-1.313.577-1.324 1.3v21.227c0 .348.14.684.39.926.246.246.586.379.934.371h20.5c.45-.055.898.082 1.238.383a1.572 1.572 0 01-1.238 2.742h-20.5a4.424 4.424 0 01-4.426-4.422V10.124a4.425 4.425 0 014.426-4.426h56.699z" fill="#69447F"/><path d="M35.375 22.875V26H19.801v-3.125h15.574zm32.426-2.176c0 6.969-10.449 6.969-10.449 0 0-6.965 10.449-6.965 10.449 0zm-18.875-6.648v3.125H19.801v-3.125h29.125z" fill="#9B2D5F"/><path fill="#A3065E" d="M.869 56.402l95.263-55 3 5.196-95.263 55z"/></g></svg>