<svg height="37" viewBox="0 0 36 37" width="36" xmlns="http://www.w3.org/2000/svg"><path d="m2.92851971 36.4142093c-.77663867 0-1.52146721-.308557-2.07097404-.8579467-.54905702-.549262-.85754567-1.2939726-.85754567-2.070573v-8.1790627c0-.3845652.07576191-.7654919.22298228-1.1208716l-.05122988.1331194c.01020581-.0298831.02140517-.0595019.03359809-.0888049l.01763179-.0443145c.1472244-.3553187.36300904-.6782935.63475623-.9498943l21.96380239-21.96381707c.5491639-.54928099 1.2941608-.85786393 2.0708767-.85786393.7767158 0 1.5217128.30858294 2.070768.85775535l8.1790609 8.17909014c.5491585.54915851.8577535 1.29410971.8577535 2.07076621 0 .776557-.308513 1.5212329-.8577535 2.0707662l-19.8932465 19.8926221 18.4289767.0005096c.750925 0 1.3698256.5652631 1.4544087 1.2934962l.0098512.1707636c0 .750925-.5652632 1.3698256-1.2934962 1.4544087l-.1707637.0098512zm-.00051971-8.1790293.00023611 5.2505096 5.24976389-.0005096zm16.106-19.036-15.499 15.5 8.178 8.178 15.5-15.499zm5.8569533-5.85674385-3.7859533 3.78574385 8.179 8.179 3.7871944-3.7851222z" fill="#6622c3"/></svg>