<svg width="28" height="28" viewBox="0 0 28 28" fill="none" xmlns="http://www.w3.org/2000/svg">
<path fill-rule="evenodd" clip-rule="evenodd" d="M18.8095 12.8239L18.7593 12.7997L11.9636 9.53012L11.9634 9.53L11.9041 9.5015L10.7123 8.92805C10.2898 8.72478 9.79999 9.03266 9.79999 9.5015L9.79999 10.8242L9.79999 10.8899L9.79999 10.8902L9.79999 17.1102L9.79999 17.1105L9.79999 17.1763L9.79999 18.4989C9.79999 18.9678 10.2898 19.2756 10.7122 19.0724L11.9041 18.4989L11.9634 18.4704L11.9636 18.4703L18.7593 15.2007L18.8095 15.1766L19.3447 14.9191L20.0627 14.5737C20.5433 14.3424 20.5433 13.658 20.0627 13.4268L19.3446 13.0813L18.8095 12.8239ZM16.2641 14.0002L11.9636 11.9312L11.9636 16.0693L16.2641 14.0002Z" fill="#6622C3"/>
<circle cx="14" cy="14" r="10.3727" stroke="#6622C3" stroke-width="2.16364"/>
</svg>
