<svg width="28" height="28" viewBox="0 0 28 28" fill="none" xmlns="http://www.w3.org/2000/svg">
<g clip-path="url(#clip0_9448_26979)">
<path fill-rule="evenodd" clip-rule="evenodd" d="M10.1538 5.34543C10.4121 3.5954 12.0295 2.16364 14.1203 2.16364H14.1332C16.224 2.16364 17.8413 3.5954 18.0997 5.34543L16.383 5.34543C15.7855 5.34543 15.3012 5.82978 15.3012 6.42725C15.3012 7.02472 15.7855 7.50907 16.383 7.50907L18.1358 7.50907V9.16361H16.383C15.7855 9.16361 15.3012 9.64796 15.3012 10.2454C15.3012 10.8429 15.7855 11.3272 16.383 11.3272H18.1358V13.7508C18.1358 15.7299 16.4151 17.4364 14.1332 17.4364H14.1203C11.8366 17.4364 10.1177 15.7282 10.1177 13.7628V11.3272H11.8713C12.4688 11.3272 12.9531 10.8429 12.9531 10.2454C12.9531 9.64796 12.4688 9.16361 11.8713 9.16361H10.1177V7.50907H11.8713C12.4688 7.50907 12.9531 7.02472 12.9531 6.42725C12.9531 5.82978 12.4688 5.34543 11.8713 5.34543H10.1538ZM7.95402 13.7628V10.2454V6.42725V5.83719C7.95402 2.5428 10.7803 0 14.1203 0H14.1332C17.4732 0 20.2995 2.5428 20.2995 5.83719V6.38573C20.3 6.39951 20.3003 6.41335 20.3003 6.42725C20.3003 6.44115 20.3 6.45499 20.2995 6.46877V10.2039C20.3 10.2177 20.3003 10.2315 20.3003 10.2454C20.3003 10.2593 20.3 10.2732 20.2995 10.287V13.7508C20.2995 17.0555 17.475 19.6 14.1332 19.6H14.1203C10.7803 19.6 7.95402 17.0572 7.95402 13.7628ZM12.9184 23.8209C7.70199 23.283 3.62726 18.8971 3.62726 13.5546C3.62726 12.9571 4.1116 12.4728 4.70908 12.4728C5.30655 12.4728 5.79089 12.9571 5.79089 13.5546C5.79089 18.0551 9.46009 21.7128 14 21.7128C18.5399 21.7128 22.2091 18.0551 22.2091 13.5546C22.2091 12.9571 22.6934 12.4728 23.2909 12.4728C23.8884 12.4728 24.3727 12.9571 24.3727 13.5546C24.3727 18.897 20.2982 23.2827 15.082 23.8209V25.9H18.5816C19.1791 25.9 19.6634 26.3844 19.6634 26.9818C19.6634 27.5793 19.1791 28.0637 18.5816 28.0637H9.41795C8.82048 28.0637 8.33613 27.5793 8.33613 26.9818C8.33613 26.3844 8.82048 25.9 9.41795 25.9H12.9184V23.8209Z" fill="#6622C3"/>
</g>
<defs>
<clipPath id="clip0_9448_26979">
<rect width="28" height="28" fill="white"/>
</clipPath>
</defs>
</svg>
