<svg height="43" viewBox="0 0 37 43" width="37" xmlns="http://www.w3.org/2000/svg"><path d="m43.5 57.5c.8284271 0 1.5.6715729 1.5 1.5 0 .7796961-.5948881 1.4204487-1.35554 1.4931334l-.14446.0068666h-6c-.8284271 0-1.5-.6715729-1.5-1.5 0-.7796961.5948881-1.4204487 1.35554-1.4931334l.14446-.0068666zm-2.9966704-38.6239056.2275064.0093941c.6037493.04791 1.1808307.2778553 1.6529298.6617761 3.2854123 2.6690548 6.3190565 6.3703632 8.1310102 11.082294.8082858 2.1019227 1.3156458 4.2833448 1.4958919 6.5389872l5.6694422 6.8048416c.2938924.3524306.5030609.7677828.6109947 1.2130108.0902877.3716549.10847.7564366.0543926 1.1335355l-.0411188.2251709-2.3180149 10.430767c-.1104284.497528-.3457484.9585647-.6838826 1.3399032-.3379125.3810886-.7671026.6697229-1.2482098.8394016-.4804754.1691561-.9960916.2132377-1.4982665.1280419-.4303102-.0730036-.8386149-.238909-1.1972214-.4852534l-.1750336-.1298178-5.2115953-4.1690681h-10.946l-5.2097742 4.168538c-.3978249.31832-.8701599.5301022-1.3724742.6153063-.5022066.0851909-1.0178434.0411069-1.4991188-.1283628-.4803022-.1694373-.9096215-.4581276-1.2475176-.839333-.2896063-.3267551-.5038384-.7120001-.6287136-1.128533l-.0549265-.2107479-2.3180563-10.4312236c-.099485-.4477871-.0949894-.9124079.013204-1.3583866.0901286-.3712649.2502069-.7213129.4710089-1.0316945l.1396943-.1813214 5.5523507-6.6624697c.1667573-2.3119294.682014-4.5463596 1.5173707-6.6974939 1.8305305-4.713815 4.9027327-8.4133708 8.2291032-11.0779415.5345182-.4288157 1.1997557-.6615119 1.8850245-.659321zm-11.5144709 22.979933-3.3647042 4.037976 2.3180444 10.4311883 4.6298905-3.7048583c-1.9987946-3.7275287-3.1655674-7.3212719-3.5832307-10.764306zm22.9404604-.0970579c-.3920988 3.469927-1.5340944 7.0937816-3.5100896 10.8546104l4.638182 3.7116221 2.3184541-10.4311054zm-11.4363191-19.8819695-.3376564.2759624c-2.8198938 2.3416821-5.4189165 5.553197-6.969603 9.5463832-.7592461 1.9551413-1.216911 3.9893884-1.3403711 6.1052094.0078774.1026991.0025997.205677-.0132614.3075335-.1785494 4.1071577.9014833 8.520662 3.4739259 13.2576816l.071966.1292299h10.235l.0734913-.134817c2.5406208-4.7818613 3.5851838-9.2357585 3.3721747-13.378832-.0187159-.1009091-.0246257-.203553-.0201673-.3056532-.1269976-1.9397242-.5325878-3.8110341-1.1898712-5.6155687l-.1339535-.3578027c-1.5979502-4.155421-4.3102689-7.4646846-7.221674-9.8293264zm.007 10.873c1.2426 0 2.25 1.0074 2.25 2.25s-1.0074 2.25-2.25 2.25-2.25-1.0074-2.25-2.25 1.0074-2.25 2.25-2.25z" fill="#6622c3" transform="translate(-22 -18)"/></svg>