<svg height="36" viewBox="0 0 38 36" width="38" xmlns="http://www.w3.org/2000/svg"><path d="m41.15036 25.6c-4.157766 0-7.773732 2.329488-9.609732 5.761692-.320814.599706-.586926 1.232658-.79191 1.892304-.250722.80694-1.108134 1.25784-1.915074 1.0071s-1.25784-1.108152-1.0071-1.915092c.263124-.846828.604638-1.658898 1.015884-2.427678 2.347146-4.387752 6.977088-7.378326 12.307932-7.378326 5.3307 0 9.96066 2.990574 12.30786 7.378326.41112.768762.75276 1.58085 1.01574 2.427678.25074.80694-.20016 1.664352-1.0071 1.915092s-1.66428-.20016-1.91502-1.0071c-.20502-.659646-.47106-1.292598-.79182-1.892304-1.836-3.432204-5.45202-5.761692-9.60966-5.761692zm.09 9.179982c.84492 0 1.53.685008 1.53 1.53v2.970018h8.10522c.76734 0 1.41588.56826 1.51668 1.32894l.63522 4.79106h3.87324c.42012 0 .8217.1728 1.1106.47772s.43974.71514.41724 1.13454l-.48474 9c-.04374.81198-.71478 1.44774-1.52784 1.44774h-27.929448c-.520596 0-1.00548-.2646-1.287-.70254l-5.7858228-9c-.3026592-.47088-.3241008-1.06938-.055908-1.5606s.7832088-.79686 1.3429008-.79686h5.804982l2.632626-5.27346c.259002-.51876.78903-.84654 1.3689-.84654h7.20315v-2.970018c0-.844992.68508-1.53 1.53-1.53zm-9.31455 10.620018h18.01485l-.40572-3.06h-16.081488zm-6.422634 3.06 3.818646 5.94h25.644438l.31986-5.94zm11.030814-12.857544c.41508-2.210238 2.35791-3.882402 4.68783-3.882402 2.3301 0 4.27284 1.672164 4.68792 3.882402.15588.830466.95562 1.37727 1.78614 1.2213.83034-.15597 1.37718-.955638 1.2213-1.786104-.68184-3.630456-3.86622-6.377598-7.69536-6.377598-3.829158 0-7.013448 2.747142-7.695252 6.377598-.15597.830466.390834 1.630134 1.2213 1.786104.830484.15597 1.630152-.390834 1.786122-1.2213z" fill="#6622c3" fill-rule="evenodd" transform="translate(-21 -22)"/></svg>