<svg width="240" height="33" xmlns="http://www.w3.org/2000/svg"><path d="M36.162.64L31.42 19.726h.087c2.132-5.943 5.526-9.326 9.008-9.326 2.13 0 3.48 1.345 3.48 3.34 0 1.388-.696 3.557-1.175 5.076L40.73 25.41c-.39 1.214-.696 2.342-.696 3.079 0 .867.392 1.3 1.088 1.3.74 0 1.48-.476 2.218-1.56 1.133-1.691 1.743-4.165 2.046-5.857h.088c-.566 6.378-3.917 9.847-6.919 9.847-1.48 0-2.655-.824-2.655-2.819 0-1.301.523-2.95 1.044-4.556l2.22-6.896c.478-1.475.827-2.906.827-3.73 0-.955-.61-1.52-1.48-1.52-2.001 0-3.872 1.78-5.178 4.079-1.26 2.212-2.959 6.637-4.873 15.095h-3.828L31.506 3.72c.174-.694.13-.78-.391-.955l-3.829-1.344v-.086L36.162.64zM59.17 10.745c3.081 0 5.251 1.75 5.251 4.098 0 4.27-5.9 7.045-10.892 7.045a12.78 12.78 0 01-1.822-.128c-.13.769-.172 1.494-.172 2.219 0 3.33 1.388 5.68 4.425 5.68 2.734 0 6.074-2.263 7.16-7.473h.086c-1.041 7.771-5.293 10.033-8.851 10.033-3.732 0-6.987-2.69-6.987-7.94 0-6.66 5.38-13.534 11.802-13.534zm23.603-9.473c3.678 0 6.485.94 8.425 2.819 1.939 1.879 2.907 4.392 2.907 7.54 0 1.952-.43 3.702-1.291 5.246-.863 1.544-2.149 2.76-3.857 3.65-1.71.888-3.77 1.333-6.184 1.333h-4.179v10.359h-8.489V1.272h12.668zm39.775 6.315c2.41 0 4.57.495 6.477 1.48a10.893 10.893 0 014.498 4.284c1.09 1.87 1.635 4.047 1.635 6.532 0 2.514-.545 4.697-1.635 6.555a11.084 11.084 0 01-4.498 4.283c-1.908 1-4.066 1.498-6.477 1.498-2.41 0-4.577-.498-6.499-1.498a11.047 11.047 0 01-4.519-4.283c-1.091-1.858-1.635-4.041-1.635-6.555 0-2.514.544-4.698 1.635-6.554a10.902 10.902 0 014.52-4.262c1.92-.985 4.088-1.48 6.498-1.48zm57.812 0c2.427 0 4.566.487 6.416 1.459a10.46 10.46 0 014.316 4.154c1.025 1.8 1.54 3.884 1.54 6.254 0 .6-.073 1.257-.218 1.97h-16.087c.143 2.715 1.344 4.071 3.599 4.071.837 0 1.531-.2 2.08-.6.55-.4.925-.927 1.128-1.585h9.019a10.13 10.13 0 01-2.125 4.563c-1.098 1.356-2.485 2.419-4.162 3.19-1.677.773-3.512 1.156-5.506 1.156-2.43 0-4.576-.491-6.44-1.476-1.865-.986-3.318-2.414-4.359-4.284-1.04-1.87-1.561-4.062-1.561-6.576 0-2.514.52-4.698 1.561-6.554a10.526 10.526 0 014.38-4.262c1.879-.985 4.017-1.48 6.419-1.48zm27.158 0c2.428 0 4.566.487 6.416 1.459a10.45 10.45 0 014.314 4.154c1.026 1.8 1.541 3.884 1.541 6.254 0 .6-.073 1.257-.218 1.97h-16.086c.143 2.715 1.344 4.071 3.597 4.071.839 0 1.533-.2 2.082-.6.55-.4.926-.927 1.128-1.585h9.02a10.165 10.165 0 01-2.125 4.563c-1.1 1.356-2.487 2.419-4.163 3.19-1.677.773-3.512 1.156-5.506 1.156-2.43 0-4.575-.491-6.44-1.476-1.865-.986-3.318-2.414-4.358-4.284-1.04-1.87-1.562-4.062-1.562-6.576 0-2.514.521-4.698 1.562-6.554a10.516 10.516 0 014.379-4.262c1.878-.985 4.018-1.48 6.419-1.48zM25.895 1.272l-2.061 9.832h-.087L21.73 2.867c-.172-.69-.258-.82-.945-.82h-4.896l-5.582 26.566c-.086.473-.086.603.386.862l3.479 2.028v.084H1.073v-.084l4.338-2.028c.515-.26.644-.39.73-.862l5.582-26.566H6.827c-.687 0-.772.044-1.287.82L.085 11.104H0l2.06-9.832h23.835zm80.21 6.315v24h-8.842v-24h8.842zm49.12-.631c2.807 0 5.005.936 6.598 2.807 1.59 1.872 2.388 4.417 2.388 7.637v14.187h-8.465V18.49c0-1.422-.37-2.531-1.106-3.33-.739-.798-1.73-1.196-2.974-1.196-1.273 0-2.288.413-3.038 1.24-.755.826-1.128 1.965-1.128 3.416v12.968h-8.553V7.173h8.553v4.09c.693-1.303 1.706-2.348 3.038-3.132 1.33-.783 2.892-1.175 4.687-1.175zm84.775 0v9.139h-2.425c-1.871 0-3.276.37-4.211 1.11-.936.74-1.405 2.024-1.405 3.851v10.531h-8.38V7.174h8.38v4.57c.936-1.451 2.113-2.612 3.532-3.482 1.417-.87 2.92-1.306 4.509-1.306zM122.548 14.87c-1.177 0-2.152.428-2.927 1.284-.775.858-1.161 2.1-1.161 3.728 0 1.657.386 2.912 1.161 3.769.775.857 1.75 1.286 2.927 1.286 1.148 0 2.109-.436 2.883-1.307.775-.871 1.162-2.12 1.162-3.748 0-1.627-.387-2.87-1.162-3.728-.774-.856-1.735-1.284-2.883-1.284zM58.65 11.386c-3.038 0-6.031 5.209-6.9 9.99.261.042.565.042.826.042 4.425 0 7.766-2.988 7.766-7.257 0-1.836-.564-2.775-1.692-2.775zm121.71 2.8c-1.13 0-2.047.314-2.755.942-.709.629-1.12 1.557-1.236 2.785h7.589c.029-1.228-.304-2.156-.998-2.785-.692-.628-1.56-.943-2.6-.943zm27.158 0c-1.128 0-2.047.314-2.755.942-.71.629-1.121 1.557-1.236 2.785h7.589c.028-1.228-.304-2.156-.998-2.785-.693-.628-1.56-.943-2.6-.943zM81.826 8.221h-3.232v6.862h3.232c2.47 0 3.704-1.151 3.704-3.452 0-2.274-1.235-3.41-3.704-3.41z" fill="#FFF" fill-rule="evenodd"/></svg>